
        <svg xmlns="http://www.w3.org/2000/svg" xmlns:xlink="http://www.w3.org/1999/xlink" version="1.1" width="3162.3493505596693" 
        height="896.4283369066254" viewBox="0 0 3162.3493505596693 896.4283369066254">
			<rect fill="#111111" width="3162.3493505596693" height="896.4283369066254"/>
			<g transform="scale(8.117467527983472) translate(10, 10)">
				<defs id="SvgjsDefs1975"><linearGradient id="SvgjsLinearGradient1982"><stop id="SvgjsStop1983" stop-color="#ee2a7b" offset="0"></stop><stop id="SvgjsStop1984" stop-color="#ff7db8" offset="1"></stop></linearGradient></defs><g id="SvgjsG1976" featureKey="symbolFeature-0" transform="matrix(0.933195125449306,0,0,0.933195125449306,-1.3064761570091767,-1.301059278518311)" fill="url(#SvgjsLinearGradient1982)"><g xmlns="http://www.w3.org/2000/svg"><path d="M86.3,45.9c0,2.7,0,5.3,0,8c0.4,0,0.8,0.1,1.2,0.1c2.5,0,5,0,7.5,0c2,0,3.3,1.2,3.3,3c0,1.8-1.2,3-3.3,3   c-2.9,0-5.7,0-8.7,0c0,2.7,0,5.3,0,8c0.3,0,0.7,0.1,1,0.1c2.6,0,5.1,0,7.7,0c2,0,3.3,1.2,3.3,3c0,1.8-1.3,3-3.3,3   c-2.9,0-5.7,0-8.8,0c0,1,0,1.9,0,2.8c0,1.2,0,2.3,0,3.5c-0.1,3.3-2.7,5.8-6,5.8c-2,0-3.9,0-6,0c0,0.5-0.1,0.9-0.1,1.2   c0,2.6,0,5.1,0,7.7c0,2-1.2,3.2-3,3.2c-1.8,0-3-1.2-3-3.2c0-2.9,0-5.8,0-8.8c-2.7,0-5.3,0-8,0c0,0.4-0.1,0.7-0.1,1.1   c0,2.5,0,5,0,7.4c0,2.2-1.1,3.4-3,3.4c-2,0-3.1-1.2-3.1-3.5c0-2.5,0-5,0-7.4c0-0.3,0-0.7,0-1.1c-2.7,0-5.3,0-8,0   c0,0.4-0.1,0.8-0.1,1.2c0,2.4,0,4.8,0,7.2c0,2.4-1,3.6-3,3.6c-2,0-3-1.2-3-3.6c0-2.8,0-5.5,0-8.4c-2.7,0-5.3,0-8,0   c0,0.3-0.1,0.6-0.1,0.9c0,2.6,0,5.2,0,7.8c0,2.1-1.2,3.3-3,3.3c-1.9,0-3-1.2-3-3.3c0-2.9,0-5.7,0-8.8c-0.7,0-1.3,0-2,0   c-1.3,0-2.6,0-3.9,0c-3.7,0-6.2-2.5-6.3-6.2c0-1.9,0-3.8,0-5.9c-0.5,0-0.8,0-1.2,0c-2.6,0-5.1,0-7.7,0c-1.9,0-3.2-1.2-3.2-3   c0-1.8,1.3-3,3.2-3c2.6,0,5.1,0,7.7,0c0.4,0,0.7,0,1.2,0c0-1.4,0-2.7,0-4.1c0-1.3,0-2.6,0-4c-0.8,0-1.4,0-2.1,0c-2.3,0-4.5,0-6.8,0   c-1.9,0-3.1-1.2-3.1-3c0-1.8,1.2-3.1,3.1-3.1c2.9,0,5.8,0,8.8,0c0-2.7,0-5.3,0-8.1c-2.2,0-4.3,0-6.5,0c-0.8,0-1.6,0-2.4,0   c-1.9,0-3.1-1.2-3.1-3c0-1.7,1.2-3,3.1-3c2.6,0,5.2,0,7.8,0c0.4,0,0.7,0,1.1,0c0-2.7,0-5.3,0-8c-1.6,0-3.3,0-4.9,0   c-1.3,0-2.6,0-3.9,0c-1.9,0-3.2-1.3-3.2-3.1c0-1.8,1.2-2.9,3.1-3c2.9,0,5.8,0,8.8,0c0-0.4,0.1-0.8,0.1-1.2c0-1.8,0-3.6,0.1-5.4   c0.2-3.1,2.7-5.4,5.8-5.5c2,0,4.1,0,6.2,0c0-1.7,0-3.3,0-4.9c0-1.4,0-2.7,0-4.1c0-1.9,1.2-3.1,3-3.1c1.8,0,3,1.2,3.1,3.2   c0,2.4,0,4.9,0,7.3c0,0.5,0,0.9,0,1.5c2.7,0,5.3,0,8,0c0-3,0-5.9,0-8.8c0-1.8,1.1-3.1,2.7-3.2c2-0.1,3.3,1.1,3.3,3.1   c0,2.6,0,5.2,0,7.8c0,0.4,0,0.7,0,1.1c2.7,0,5.3,0,8.1,0c0-1.5,0-3,0-4.5c0-1.5,0-3.1,0-4.6c0.1-1.5,1.1-2.6,2.4-2.8   c1.6-0.3,2.9,0.4,3.4,1.8C60,4,60,4.6,60,5.2c0,2.8,0,5.5,0,8.4c2.7,0,5.3,0,8.1,0c0-2.6,0-5.1,0-7.6c0-0.5,0-0.9,0-1.4   c0.1-1.8,1.2-3,3-3c1.7,0,3,1.2,3,2.9c0,2.6,0,5.2,0,7.8c0,0.4,0,0.8,0,1.4c1,0,1.9,0,2.8,0c1.2,0,2.3,0,3.4,0   c3.2,0.1,5.7,2.6,5.8,5.8c0.1,2,0,4,0,6.1c0.5,0,0.8,0.1,1.2,0.1c2.6,0,5.2,0,7.9,0c1.6,0,2.7,1,3,2.3c0.3,1.6-0.4,3-1.8,3.5   c-0.5,0.2-1.1,0.2-1.7,0.2c-2.4,0-4.9,0-7.3,0c-0.4,0-0.7,0-1.2,0c0,1.4,0,2.7,0,4c0,1.3,0,2.6,0,4c0.4,0,0.8,0.1,1.2,0.1   c2.6,0,5.1,0,7.7,0c1.9,0,3.2,1.2,3.2,3c0,1.8-1.3,3-3.2,3C92.3,45.9,89.4,45.9,86.3,45.9z M37.7,71.7c1-0.5,2.3-0.3,3.2,0.9   c0.8,1,1.6,1.2,2.7,0.8c0.9-0.3,1.8-0.6,2.7-0.8c3.2-1,3.1-1,3-4.4c0-0.7-0.3-1.1-1-1c-1.6,0-3.1,0.1-4.2,1.4   c-0.2,0.3-0.5,0.5-0.8,0.6c-0.3,0.1-0.8,0-1.1-0.1c-0.1-0.1-0.1-0.7,0.1-0.9c0.7-1.3,1.8-2.1,3.3-2.3c0.9-0.1,1.8-0.2,2.7-0.2   c0.8,0,1.2-0.3,1.1-1.1c-0.1-1.2-0.1-2.4-0.2-3.7c-0.2-1.9-1-2.7-3-2.6c-1.2,0.1-2.3,0.4-3.5,0.7c-1.3,0.3-2.5,0.3-3.4-0.7   c-0.7-0.9-1.3-1.9-1.9-2.9c-0.1-0.2,0-0.9,0.2-1c0.2-0.1,0.8-0.1,1,0.1c0.4,0.4,0.7,0.9,1,1.4c0.8,1.4,1.5,1.8,3,1.3   c2.1-0.8,4.2-1.1,6.4-0.1c0,0,0.1,0,0.2-0.1c0-1.5,0-3.1,0-4.8c-0.5,0.4-0.9,0.6-1.2,0.8c-1.9,1.2-3.2,1.2-4.9-0.2   c-0.5-0.4-1.1-0.9-1.5-1.4c-1-1-2.1-1.3-3.5-1.2c-1.1,0.1-2.3,0.3-3.4,0c-2-0.5-3.9-0.5-5.8,0.1c-2,0.6-4,1.1-6.1,1.6   c0.2,1.8,0.5,3.4,0.7,5.2c0.9-0.3,1.6-0.6,2.4-0.7c0.8,0,1.5,0.3,2.3,0.4c0.8,0.1,1-0.4,1.2-1.1c0.4-2.1,2.8-3,4.4-1.5   c1.4,1.3,1.9,2.9,1.9,4.7c0,1-0.5,1.8-1.4,2.2c-1.2,0.6-2.4,1.2-3.6,1.8c-0.7,0.3-1.4,0.5-2-0.1c1.2-1.6,2.6-2.8,4.7-2.9   c0.3,0,0.9-0.7,0.9-1.1c0-1.5-0.6-2.9-1.7-3.9c-0.5-0.5-1-0.5-1.2,0.3c-0.2,0.6-0.4,1.2-0.5,1.7c-0.4,1.4-1.1,1.8-2.5,1.5   c-0.4-0.1-0.7-0.2-1-0.3c-2-0.5-2.5-0.1-2.4,1.9c0,0.3,0,0.6,0.1,0.9c0.9,3.4,2.6,6.3,4.9,8.9c0,0,0.1,0,0.2,0   c0.1-0.2,0.2-0.5,0.2-0.7c0.5-2.7,1.4-3.3,4.1-3.2c0.1,0,0.3,0,0.4,0c1.4,0.1,2.5-0.3,3.1-1.7c0.4-1,1.2-1.6,2.3-1.8   c1-0.2,2-0.4,3.1-0.5c0.3,0,0.7,0,1.1,0.1c0.3,0.1,0.6,0.4,0.6,0.6c0,0.2-0.3,0.5-0.6,0.6c-0.7,0.2-1.4,0.3-2.1,0.5   c-1,0.4-2.2,0.6-2.7,1.3c-1.3,1.8-2.9,2.6-5.2,2.3c-1.8-0.2-2.7,0.7-2.8,2.6c-0.1,1.9,0.8,3.4,2.2,4.6c2.1,1.9,4.5,3.5,7.1,4.6   c1.7,0.7,3.5,1.1,5.4,0.9c2.3-0.2,3-0.9,3.2-3.2c0.1-0.6,0.1-1.1,0.1-1.7c0-2-0.8-2.5-2.6-1.5c-1.1,0.6-2.1,1.2-3.2,1.7   c-1,0.4-2,0.4-2.8-0.5C39.7,73.9,38.7,72.8,37.7,71.7z M63.2,72.1c-1.9,0.2-2.7,1.6-3.8,2.8c-1,1.1-2.1,1.3-3.4,0.5   c-0.6-0.3-1.1-0.7-1.6-1c-0.7-0.4-1.3-0.8-2-0.9c-0.4-0.1-1.3,0.4-1.3,0.7c-0.7,3.2-0.2,6.1,3.7,6c5.3-0.2,9.8-2.4,13.1-6.7   c0.8-1.1,1.1-2.4,1-3.8c-0.2-1.5-0.8-2.1-2.3-2c-0.7,0-1.4,0.2-2.1,0.2c-1.2,0.1-2.2-0.4-2.6-1.5c-0.7-1.7-2-2.4-3.7-2.5   c-0.5,0-1,0-1.5-0.3c-0.4-0.2-0.8-0.7-1.1-1c0.5-0.3,1-0.8,1.5-0.7c2.3,0.2,4.4,0.9,5.6,3.1c0.5,1,1.4,1.3,2.5,1   c0.4-0.1,0.8-0.2,1.3-0.2c1.8-0.3,3,0.3,3.6,2.1c0.2,0.7,0.4,1.4,0.6,2.3c2.2-2.3,3.8-4.8,4.6-7.8c0.2-0.8,0.3-1.7,0.3-2.6   c0-1.2-0.6-1.6-1.8-1.3c-2.5,0.7-3.8-0.2-4.1-2.5c0-0.4-0.5-1.1-0.8-1.1c-0.5,0-1.2,0.3-1.4,0.7c-0.5,0.9-0.8,1.8-1,2.8   c-0.3,1.2-0.1,1.7,1.2,1.7c2,0.1,3.1,1.5,4.4,2.8c-0.8,0.7-1.5,0.5-2.2,0.1c-0.9-0.5-1.9-0.9-2.9-1.2c-1.4-0.4-2.2-1.2-2-2.6   c0.3-1.6,0.8-3.1,1.5-4.5c0.6-1.3,1.7-1.6,2.8-1.4c1.3,0.3,1.6,1.2,1.8,2.4c0.2,1.6,0.9,1.9,2.3,1.3c1.3-0.5,2.5-1.3,3.8,0.6   c0.2-1.9,0.4-3.4,0.6-4.9c0-0.5,0-0.9-0.7-0.8c-2.1,0.1-4.1-0.7-6-1.4c-1-0.3-2.1-0.4-3.2-0.3c-1.3,0.1-2.6,0.7-3.9,0.6   c-2.5-0.2-4.5,0.5-6.3,2.3c-1.6,1.6-3.6,1.5-5.4,0c-0.3-0.2-0.6-0.5-1-0.8c0,1.8,0,3.4,0,5.1c0.3-0.1,0.5,0,0.6-0.1   c1.7-1,3.5-0.7,5.2,0.1c0.3,0.1,0.7,0.2,1,0.3c1.3,0.3,1.9,0.1,2.5-1.1c0.3-0.5,0.6-1,0.9-1.5c0.5-0.6,1.1-0.8,1.8-0.2   c-0.5,0.8-0.9,1.6-1.4,2.4c-1,1.5-2.3,2.2-4.1,1.7c-0.9-0.2-1.9-0.5-2.8-0.6c-2.1-0.3-3.6,0.8-3.9,2.9c-0.1,1-0.2,1.9-0.1,2.9   c0,1.6,0.2,1.6,1.8,1.7c1.3,0,2.6,0.2,3.8,0.5c1,0.2,1.7,1,1.8,2.1c0.1,0.4-0.3,0.9-0.4,1.3c-0.3-0.2-0.8-0.3-1-0.5   c-1.3-1.9-3.1-1.9-5.1-1.8c-0.2,0-0.6,0.3-0.6,0.5c-0.1,1.3,0,2.6,0,4c0.8,0,1.5,0,2.2,0.1c0.7,0.1,1.3,0.4,1.9,0.7   c2.8,1.6,2.9,1.6,5-0.8C60.9,70.8,62.1,70.9,63.2,72.1z M49.1,36.9c-2,0.7-2.4,0.8-4.4,0.4c-0.5-0.1-1-0.2-1.5-0.3   c-2.2-0.4-3.7,0.6-4.4,2.9c-0.7,2.1,0.1,3.8,2,4.7c0.9,0.4,1.8,0.6,2.8,0.9c1.2,0.4,1.4,1,0.6,2.1c-1.3-0.5-2.6-0.9-3.9-1.4   c-2.6-1-4-4-3.3-6.9c0.6-2.5,3.3-4.4,6-4.1c0.8,0.1,1.5,0.3,2.3,0.5c2.3,0.5,3.7-0.6,3.8-2.9c0.1-1.6,0-3.2,0.1-4.7   c0-0.7-0.2-1.1-0.9-1.3c-1.9-0.6-3.5-1.9-5.7-1.6c0.3-0.4,0.6-0.8,0.9-0.8c1-0.1,2-0.1,2.9,0.1c0.9,0.2,1.7,0.6,2.9,1   c-0.1-1.4,0-2.6-0.3-3.7c-0.1-0.6-0.7-1.3-1.2-1.5c-2.8-0.7-5.6-0.8-8.2,0.6c-0.6,0.3-1.3,1.3-1.3,1.9c0,1.8,0.2,3.6,0.5,5.3   c0.2,1,0.9,1.7,2,1.7c1.4,0.1,2.9,0.1,4.3,0.2c0.3,0,0.6,0.3,1,0.5c-0.2,0.3-0.4,0.8-0.7,0.8c-1,0.2-2.1,0.4-3.2,0.4   c-3.6-0.2-4.2-0.8-4.8-4.3c-0.3-1.6-0.5-3.2-0.8-5.1c-1.2,1.1-2.3,1.9-3.1,2.8c-0.4,0.5-0.7,1.4-0.6,1.9c0.3,1.3,0.9,2.6,1.5,3.9   c0.5,1.1,1.3,2.1,1.7,3.2c0.7,1.8,0.4,3.5-0.9,4.9c-1.2,1.4-2.8,1.3-4.4,0.9c-1.3-0.3-2.5-0.7-3.8-0.9c-1-0.2-2-0.1-2.8,0.8   c-1,1.2-1.2,2.7-1.4,4.4c1.2-0.3,2.2-0.5,3.2-0.8c2.3-0.7,4.6-0.5,6.8-0.3c0.4,0,0.7,0.4,1.1,0.7c-0.3,0.3-0.7,0.7-1.1,0.7   c-1,0.1-2,0.1-3,0.1c-0.7,0-1.5-0.2-2.2,0c-1.7,0.4-3.3,0.9-4.9,1.4c0,1.2,0,2.5,0,3.9c2.4-0.5,4.6-0.9,6.8-1.5   c1.5-0.4,3-0.5,4.6-0.2c1.1,0.2,2.3,0.4,3.4,0.3c2.2,0,4,0.5,5.4,2.3c1.2,1.5,3.3,1.6,4.6,0.2c0.7-0.7,1.3-1.8,1.5-2.8   c0.2-1.6,0.1-3.3,0-4.9c0-0.2-0.4-0.6-0.7-0.7c-1.1-0.2-2.2-0.3-3.3-0.4c-0.7-0.1-1.4-0.2-1.3-1c0.2-0.8,0.9-0.7,1.6-0.6   c0.8,0.2,1.6,0.4,2.4,0.5c0.6,0.1,1.2-0.1,1.3-0.8C49.1,39.3,49.1,38.2,49.1,36.9z M77.4,44.5c-0.4-1.4-0.6-2.5-0.9-3.5   c-0.5-1.4-1.5-2-3.1-1.8c-1,0.1-2,0.5-3.1,0.6c-1.2,0.2-2.5,0.5-3.7,0.4c-2.1-0.1-3.1-1.4-2.8-3.4c0.2-1.5,0.7-2.9,1.3-4.3   c0.5-1.3,1.3-2.6,1.8-3.9c0.9-2.3-0.7-5-3.1-5.6c-0.4,2-0.7,4.1-1.1,6.1c-0.4,1.7-1.7,2.6-3.5,2.6c-1.1,0-2.2,0.1-3.3,0.2   c-0.6,0-1.3,0-1.9-0.2c-0.2-0.1-0.5-0.7-0.4-0.9c0.1-0.2,0.6-0.4,0.9-0.5c0.8-0.1,1.7-0.1,2.6-0.1c0.7,0,1.5-0.2,2.2-0.1   c1.4,0,1.9-0.3,2-1.7c0.1-1.8,0.1-3.5,0.1-5.3c0-1.7-0.7-2.6-2.4-2.8c-1.6-0.2-3.1-0.4-4.7-0.3c-2.4,0.1-3.5,1.3-3.6,3.7   c-0.1,1.8,0.3,2.1,2,1.5c1.2-0.4,2.4-0.9,3.7-1.1c1.2-0.2,1.9,0.5,2.4,1.8c-0.5,0-1,0-1.4-0.1c-1.2-0.6-2.3-0.3-3.4,0.2   c-0.8,0.4-1.7,0.7-2.6,1.1c-0.2,0.1-0.5,0.4-0.5,0.7c0,1.8-0.1,3.5,0,5.3c0.2,2.5,2.3,3.7,4.6,2.8c0.7-0.3,1.5-0.5,2.3-0.4   c2.2,0.1,4.4,1.9,5.2,4.2c0.7,2.1,0.2,4.5-1.8,5.9c-1.4,1-3.1,1.5-4.8,2.1c-0.3,0.1-0.8-0.1-1.2-0.2c0.2-0.4,0.3-1,0.6-1.1   c0.7-0.4,1.6-0.7,2.4-0.9c2.4-0.6,3.5-2.4,2.9-4.8c-0.6-2.6-2.5-4-4.9-3.4c-1.8,0.4-3.5,1.2-5.4-0.2c-0.1,1.2-0.1,2.1-0.2,3   c-0.1,1.3,0.2,1.6,1.5,1.5c1-0.1,1.9-0.3,2.9-0.4c0.8-0.1,1.6,0.1,1.9,1.1c-1.9,1.2-4,1.1-6.1,1.1c0,1.5,0,3,0,4.4   c0,1.8,0.8,3.2,2.2,4.4c1.5,1.3,2.7,1.2,3.8-0.4c1.2-1.7,2.8-2.4,4.9-2.3c1.5,0,3.1-0.3,4.6-0.4c1.3-0.1,2.6-0.1,3.8,0   c1.2,0.2,2.3,0.7,3.5,1c1,0.3,2.1,0.4,3.4,0.7c0-1.3,0-2.4,0-3.4c0-0.7-0.2-0.9-0.8-1c-1.4-0.3-2.8-0.7-4.3-1c-0.6-0.1-1.4-0.1-2,0   c-1.4,0.3-2.7,0.1-3.9-0.5c-0.3-0.1-0.6-0.8-0.5-1c0.1-0.3,0.6-0.5,1-0.6c0.3-0.1,0.6,0.1,0.9,0.3c0.9,0.6,1.8,0.5,2.9,0.4   c0.9-0.2,1.9-0.1,2.8,0.1C74.7,43.7,75.9,44.1,77.4,44.5z M69.4,27.5c-0.1,0-0.2,0.1-0.4,0.1c-0.1,0.2-0.2,0.4-0.3,0.7   c-0.7,1.5-1.4,3.1-2.2,4.6c-0.4,0.8-0.8,1.5-1.1,2.3c-0.6,2.1,0.5,3.6,2.6,3.4c2.2-0.2,4.3-0.7,6.8-1.2C74.2,36.1,73.7,35,73,34   c-0.4-0.7-1.1-0.6-1.7-0.1c-0.3,0.3-0.6,0.8-1,1c-0.4,0.2-1,0.2-1.5,0.2c0.1-0.4,0-1,0.3-1.2c0.8-0.8,1.7-1.6,2.6-2.4   C71,30.2,70.2,28.8,69.4,27.5z M25.4,37.4c1,0.2,1.7,0.4,2.5,0.6c0.7,0.2,1.5,0.4,2.2,0.6c0.7,0.1,1.5,0.3,2.2,0.2   c1.8-0.1,2.8-1.4,2.3-3.2c-0.2-0.6-0.4-1.2-0.7-1.8c-1-2.1-2-4.1-3-6.2c0,0-0.1,0-0.3-0.1c-0.6,1-1.3,2-2,3   c-0.5,0.8-0.3,1.3,0.4,1.8c0.8,0.5,1.5,1.1,2.1,1.8c0.3,0.3,0.1,0.9,0.2,1.3c-0.5,0-1.1,0.2-1.5,0c-0.6-0.3-1.1-0.8-1.6-1.2   c-0.4-0.3-0.7-0.5-1.3-0.9C26.5,34.6,25.9,36,25.4,37.4z"></path><path d="M37.7,71.7c1,1.2,2,2.3,3,3.4c0.8,0.9,1.8,1,2.8,0.5c1.1-0.5,2.1-1.2,3.2-1.7c1.8-1,2.5-0.5,2.6,1.5   c0,0.6,0,1.2-0.1,1.7c-0.2,2.3-0.9,3-3.2,3.2c-1.9,0.2-3.6-0.2-5.4-0.9c-2.6-1.1-5-2.7-7.1-4.6c-1.3-1.2-2.3-2.7-2.2-4.6   c0.1-1.9,1-2.8,2.8-2.6c2.3,0.3,3.8-0.4,5.2-2.3c0.5-0.7,1.8-0.9,2.7-1.3c0.7-0.2,1.4-0.3,2.1-0.5c0.2-0.1,0.6-0.4,0.6-0.6   c0-0.2-0.4-0.5-0.6-0.6C43.6,62,43.3,62,42.9,62c-1,0.1-2.1,0.3-3.1,0.5c-1,0.2-1.9,0.8-2.3,1.8c-0.6,1.4-1.7,1.8-3.1,1.7   c-0.1,0-0.3,0-0.4,0c-2.7-0.2-3.5,0.5-4.1,3.2c0,0.2-0.1,0.5-0.2,0.7c-0.1,0-0.2,0-0.2,0c-2.3-2.6-4-5.5-4.9-8.9   c-0.1-0.3-0.1-0.6-0.1-0.9c-0.1-2.1,0.4-2.5,2.4-1.9c0.3,0.1,0.7,0.2,1,0.3c1.4,0.3,2.1-0.1,2.5-1.5c0.2-0.6,0.3-1.2,0.5-1.7   c0.3-0.7,0.7-0.8,1.2-0.3c1.1,1.1,1.7,2.4,1.7,3.9c0,0.4-0.6,1.1-0.9,1.1c-2.1,0.1-3.5,1.3-4.7,2.9c0.6,0.6,1.3,0.4,2,0.1   c1.2-0.6,2.4-1.2,3.6-1.8c0.9-0.5,1.4-1.2,1.4-2.2c0.1-1.9-0.4-3.5-1.9-4.7c-1.6-1.4-4-0.6-4.4,1.5C29,56.5,28.8,57,28,56.9   c-0.8-0.1-1.6-0.4-2.3-0.4c-0.8,0-1.5,0.4-2.4,0.7c-0.2-1.7-0.5-3.4-0.7-5.2c2.1-0.5,4.1-1,6.1-1.6c1.9-0.6,3.8-0.7,5.8-0.1   c1.1,0.3,2.3,0.2,3.4,0c1.4-0.2,2.5,0.1,3.5,1.2c0.5,0.5,1,0.9,1.5,1.4c1.7,1.4,3.1,1.4,4.9,0.2c0.3-0.2,0.6-0.4,1.2-0.8   c0,1.7,0,3.3,0,4.8c-0.1,0-0.2,0.1-0.2,0.1c-2.1-1-4.2-0.7-6.4,0.1c-1.5,0.5-2.2,0.1-3-1.3c-0.3-0.5-0.6-1-1-1.4   c-0.2-0.2-0.8-0.3-1-0.1c-0.2,0.1-0.3,0.7-0.2,1c0.6,1,1.1,2,1.9,2.9c0.9,1,2.1,1,3.4,0.7c1.1-0.3,2.3-0.6,3.5-0.7   c2-0.1,2.8,0.7,3,2.6c0.1,1.2,0.1,2.4,0.2,3.7c0,0.8-0.3,1.1-1.1,1.1c-0.9,0-1.8,0.1-2.7,0.2c-1.5,0.2-2.6,1-3.3,2.3   C42,68.4,41.9,68.9,42,69c0.3,0.2,0.7,0.2,1.1,0.1c0.3-0.1,0.6-0.4,0.8-0.6c1.1-1.4,2.7-1.4,4.2-1.4c0.7,0,1,0.3,1,1   c0.2,3.3,0.2,3.3-3,4.4c-0.9,0.3-1.8,0.5-2.7,0.8c-1.1,0.4-2,0.2-2.7-0.8C40,71.4,38.7,71.1,37.7,71.7z" style="fill: none;"></path><path d="M49.1,36.9c0,1.3,0,2.4,0,3.5c0,0.7-0.7,0.9-1.3,0.8c-0.8-0.1-1.6-0.3-2.4-0.5c-0.7-0.1-1.4-0.2-1.6,0.6   c-0.2,0.9,0.6,1,1.3,1c1.1,0.1,2.2,0.2,3.3,0.4c0.3,0.1,0.7,0.4,0.7,0.7c0.1,1.6,0.2,3.3,0,4.9c-0.1,1-0.7,2-1.5,2.8   c-1.3,1.4-3.4,1.3-4.6-0.2c-1.4-1.8-3.2-2.3-5.4-2.3c-1.1,0-2.3-0.1-3.4-0.3c-1.6-0.3-3-0.2-4.6,0.2c-2.2,0.5-4.4,1-6.8,1.5   c0-1.4,0-2.7,0-3.9c1.6-0.5,3.3-1,4.9-1.4c0.7-0.2,1.5,0,2.2,0c1,0,2,0,3-0.1c0.4,0,0.7-0.5,1.1-0.7c-0.4-0.2-0.7-0.7-1.1-0.7   c-2.3-0.2-4.6-0.4-6.8,0.3c-1,0.3-2,0.5-3.2,0.8c0.1-1.8,0.4-3.2,1.4-4.4c0.7-0.9,1.7-1,2.8-0.8c1.3,0.3,2.5,0.6,3.8,0.9   c1.6,0.4,3.2,0.5,4.4-0.9c1.3-1.4,1.5-3.2,0.9-4.9c-0.4-1.1-1.2-2.1-1.7-3.2c-0.6-1.3-1.2-2.5-1.5-3.9c-0.1-0.6,0.2-1.4,0.6-1.9   c0.9-1,1.9-1.8,3.1-2.8c0.3,1.9,0.5,3.5,0.8,5.1c0.6,3.6,1.2,4.2,4.8,4.3c1.1,0.1,2.1-0.2,3.2-0.4c0.3-0.1,0.5-0.5,0.7-0.8   c-0.3-0.2-0.6-0.5-1-0.5c-1.4-0.1-2.9-0.1-4.3-0.2c-1.1,0-1.9-0.7-2-1.7c-0.3-1.8-0.5-3.6-0.5-5.3c0-0.7,0.7-1.6,1.3-1.9   c2.6-1.4,5.4-1.3,8.2-0.6c0.5,0.1,1.1,0.9,1.2,1.5c0.3,1.1,0.2,2.2,0.3,3.7c-1.1-0.4-2-0.8-2.9-1c-1-0.2-2-0.1-2.9-0.1   c-0.3,0-0.6,0.4-0.9,0.8c2.2-0.3,3.8,1,5.7,1.6c0.7,0.2,0.9,0.6,0.9,1.3c-0.1,1.6,0,3.2-0.1,4.7c-0.1,2.3-1.5,3.3-3.8,2.9   c-0.8-0.2-1.5-0.4-2.3-0.5c-2.7-0.3-5.4,1.6-6,4.1c-0.7,2.8,0.7,5.8,3.3,6.9c1.3,0.5,2.6,0.9,3.9,1.4c0.8-1.1,0.6-1.7-0.6-2.1   c-0.9-0.3-1.9-0.5-2.8-0.9c-2-0.9-2.7-2.6-2-4.7c0.7-2.3,2.2-3.3,4.4-2.9c0.5,0.1,1,0.2,1.5,0.3C46.6,37.7,47,37.7,49.1,36.9z" style="fill: none;"></path><path d="M25.4,37.4c0.6-1.4,1.1-2.7,1.7-4.2c0.6,0.4,1,0.7,1.3,0.9c0.5,0.4,1,0.9,1.6,1.2c0.4,0.2,1,0,1.5,0   c-0.1-0.5,0.1-1.1-0.2-1.3c-0.6-0.7-1.4-1.3-2.1-1.8c-0.8-0.5-0.9-1-0.4-1.8c0.7-1,1.3-2,2-3c0.2,0.1,0.3,0.1,0.3,0.1   c1,2.1,2,4.1,3,6.2c0.3,0.6,0.5,1.2,0.7,1.8c0.4,1.8-0.5,3.1-2.3,3.2c-0.7,0-1.5-0.1-2.2-0.2c-0.7-0.1-1.5-0.4-2.2-0.6   C27.1,37.8,26.4,37.6,25.4,37.4z" style="fill: none;"></path></g></g><g id="SvgjsG1977" featureKey="nameFeature-0" transform="matrix(1.042171683994395,0,0,1.042171683994395,105.27708508711152,4.094694221608975)" fill="#f5c7f7"><path d="M22.754 12.754000000000001 l2.6758 0 l0 27.246 l-2.6563 0 l-15.605 -22.91 l0 22.91 l-2.6367 0 l0 -27.246 l2.6367 0 l15.586 22.813 l0 -22.813 z M51.83203125 15.254000000000001 l-11.406 0 l0 9.9023 l10.02 0 l0 2.4805 l-10.02 0 l0 9.8633 l11.406 0 l0 2.5 l-14.219 0 l0 -27.246 l14.219 0 l0 2.5 z M70.909875 40.37109 c-5.4688 0 -9.6484 -3.5156 -9.6484 -9.2188 l0 -18.398 l2.7148 0 l0 18.008 c0 4.6875 3.0078 7.0898 6.9336 7.0898 c3.9063 0 6.9922 -2.4219 6.9922 -7.0898 l0 -18.008 l2.6953 0 l0 18.398 c0 5.7031 -4.1992 9.2188 -9.6875 9.2188 z M107.09759375 40 l-6.9727 -12.402 l-5.1953 0 l0 12.402 l-2.7148 0 l0 -27.246 l8.75 0 c5.3906 0 8.0078 3.3789 8.0078 7.5391 c0 3.75 -2.207 6.6016 -6.1523 7.1875 l7.4023 12.52 l-3.125 0 z M94.92969375 15.195 l0 10.117 l5.7227 0 c3.8867 0 5.7031 -2.0508 5.7031 -5.0195 c0 -2.9297 -1.8164 -5.0977 -5.7031 -5.0977 l-5.7227 0 z M137.07434375 40 l-2.4609 -6.8359 l-12.637 0 l-2.4609 6.8359 l-2.8711 0 l10.039 -27.246 l3.2031 0 l10.039 27.246 l-2.8516 0 z M122.87504375 30.6836 l10.84 0 l-5.4297 -15.078 z M151.64063125 37.5 l9.7656 0 l0 2.5 l-12.48 0 l0 -27.246 l2.7148 0 l0 24.746 z M167.02738125 40 l10.625 -14.238 l-10.078 -13.008 l3.2813 0 l8.418 11.133 l8.3789 -11.133 l3.2813 0 l-10.078 13.008 l10.625 14.238 l-3.418 0 l-8.7891 -12.227 l-8.8281 12.227 l-3.418 0 z M211.92609375 40.37109 c-7.5391 0 -13.438 -5.2344 -13.438 -14.004 c0 -8.75 5.8984 -13.984 13.438 -13.984 c7.4805 0 13.418 5.2344 13.418 13.984 c0 8.7695 -5.9375 14.004 -13.418 14.004 z M211.92609375 37.7539 c5.9375 0 10.684 -4.082 10.684 -11.387 c0 -7.2656 -4.7461 -11.328 -10.684 -11.328 c-5.957 0 -10.742 4.0625 -10.742 11.328 c0 7.3047 4.7852 11.387 10.742 11.387 z M250.4765 40 l-6.9727 -12.402 l-5.1953 0 l0 12.402 l-2.7148 0 l0 -27.246 l8.75 0 c5.3906 0 8.0078 3.3789 8.0078 7.5391 c0 3.75 -2.207 6.6016 -6.1523 7.1875 l7.4023 12.52 l-3.125 0 z M238.3086 15.195 l0 10.117 l5.7227 0 c3.8867 0 5.7031 -2.0508 5.7031 -5.0195 c0 -2.9297 -1.8164 -5.0977 -5.7031 -5.0977 l-5.7227 0 z"></path></g><g id="SvgjsG1978" featureKey="sloganFeature-0" transform="matrix(0.4835406905402636,0,0,0.4835406905402636,109.17836758448261,63.157306845411505)" fill="#f5c7f7"><path d="M6.9629 20.18555 c-2.959 0 -5.2637 -1.6504 -5.2637 -4.9316 l0 -9.1797 l2.3438 0 l0 8.8574 c0 2.2168 1.2793 3.1641 2.9199 3.1641 s2.9395 -0.95703 2.9395 -3.1641 l0 -8.8574 l2.334 0 l0 9.1797 c0 3.2813 -2.3047 4.9316 -5.2734 4.9316 z M30.082738281250002 6.074 l2.334 0 l0 13.926 l-2.6172 0 l-6.8359 -10.625 l0 10.625 l-2.3145 0 l0 -13.926 l2.5879 0 l6.8457 10.557 l0 -10.557 z M43.4560828125 17.9102 l4.5996 0 l0 2.0898 l-6.9336 0 l0 -13.926 l2.334 0 l0 11.836 z M63.03073671875 8.154 l-5.4102 0 l0 3.8574 l4.7852 0 l0 2.0605 l-4.7852 0 l0 3.8379 l5.4102 0 l0 2.0898 l-7.7734 0 l0 -13.926 l7.7734 0 l0 2.0801 z M80.076359375 20 l-1.1035 -3.0957 l-6.084 0 l-1.0938 3.0957 l-2.4121 0 l5.127 -13.926 l2.8418 0 l5.127 13.926 l-2.4023 0 z M73.601559375 14.9023 l4.668 0 l-2.334 -6.582 z M94.11372578125 20.18555 c-2.9492 0 -5.1563 -1.4063 -5.6055 -3.8672 l2.4023 -0.55664 c0.25391 1.6016 1.5723 2.4805 3.291 2.4805 c1.3574 0 2.5879 -0.57617 2.5684 -2.041 c-0.019531 -1.5234 -1.709 -1.9629 -3.5352 -2.4805 c-2.1094 -0.61523 -4.2773 -1.3184 -4.2773 -3.877 c0 -2.5977 2.1289 -3.9648 4.7754 -3.9648 c2.4414 0 4.7559 1.0254 5.293 3.5254 l-2.2559 0.56641 c-0.3125 -1.4844 -1.4648 -2.1387 -2.9199 -2.1387 c-1.2988 0 -2.5293 0.55664 -2.5293 1.9727 c0 1.2891 1.4746 1.6895 3.1641 2.1582 c2.1777 0.60547 4.6973 1.3477 4.6973 4.1406 c0 2.8809 -2.4121 4.082 -5.0684 4.082 z M115.7101796875 6.074 l2.3438 0 l0 13.926 l-2.3438 0 l0 -5.9473 l-6.4648 0 l0 5.9473 l-2.3438 0 l0 -13.926 l2.3438 0 l0 5.918 l6.4648 0 l0 -5.918 z M126.74952421875 20 l0 -13.926 l2.334 0 l0 13.926 l-2.334 0 z M147.222875 6.074 l2.334 0 l0 13.926 l-2.6172 0 l-6.8359 -10.625 l0 10.625 l-2.3145 0 l0 -13.926 l2.5879 0 l6.8457 10.557 l0 -10.557 z M164.22901953125 20.18555 c-3.9453 0 -6.9336 -2.7051 -6.9336 -7.1191 c0 -4.4434 3.0273 -7.1875 7.0313 -7.1875 c2.6172 0 4.8242 1.1523 6.0352 3.2617 l-2.0605 1.1035 c-0.82031 -1.5527 -2.2852 -2.2852 -3.9746 -2.2852 c-2.6465 0 -4.6777 1.8066 -4.6777 5.0586 c0 3.1836 1.9531 5.0977 4.7656 5.0977 c2.1289 0 3.8965 -1.1426 4.248 -3.5352 l-4.248 0 l0 -1.9238 l6.4844 0 l0 7.3438 l-1.8652 0 l0 -2.2656 c-0.91797 1.543 -2.5391 2.4512 -4.8047 2.4512 z M198.31027734375 6.074 l2.334 0 l0 13.926 l-2.6172 0 l-6.8359 -10.625 l0 10.625 l-2.3145 0 l0 -13.926 l2.5879 0 l6.8457 10.557 l0 -10.557 z M217.123021875 8.154 l-5.4102 0 l0 3.8574 l4.7852 0 l0 2.0605 l-4.7852 0 l0 3.8379 l5.4102 0 l0 2.0898 l-7.7734 0 l0 -13.926 l7.7734 0 l0 2.0801 z M229.99854453125 20.18555 c-2.959 0 -5.2637 -1.6504 -5.2637 -4.9316 l0 -9.1797 l2.3438 0 l0 8.8574 c0 2.2168 1.2793 3.1641 2.9199 3.1641 s2.9395 -0.95703 2.9395 -3.1641 l0 -8.8574 l2.334 0 l0 9.1797 c0 3.2813 -2.3047 4.9316 -5.2734 4.9316 z M251.1357828125 20 l-3.6133 -6.2109 l-1.5039 0 l0 6.2109 l-2.334 0 l0 -13.926 l4.834 0 c3.0176 0 4.3457 1.8066 4.3457 4.043 c0 1.9434 -1.1523 3.252 -2.998 3.584 l4.0137 6.2988 l-2.7441 0 z M246.0185828125 8.047 l0 4.0137 l2.1582 0 c1.709 0 2.4414 -0.80078 2.4414 -1.9922 c0 -1.1816 -0.73242 -2.0215 -2.4414 -2.0215 l-2.1582 0 z M270.31024609375 20 l-1.1035 -3.0957 l-6.084 0 l-1.0938 3.0957 l-2.4121 0 l5.127 -13.926 l2.8418 0 l5.127 13.926 l-2.4023 0 z M263.83544609375 14.9023 l4.668 0 l-2.334 -6.582 z M282.2090125 17.9102 l4.5996 0 l0 2.0898 l-6.9336 0 l0 -13.926 l2.334 0 l0 11.836 z M312.7355703125 6.074 l2.3438 0 l0 13.926 l-2.3438 0 l0 -5.9473 l-6.4648 0 l0 5.9473 l-2.3438 0 l0 -13.926 l2.3438 0 l0 5.918 l6.4648 0 l0 -5.918 z M332.91571484375 20 l-1.1035 -3.0957 l-6.084 0 l-1.0938 3.0957 l-2.4121 0 l5.127 -13.926 l2.8418 0 l5.127 13.926 l-2.4023 0 z M326.44091484375 14.9023 l4.668 0 l-2.334 -6.582 z M349.93168125 20 l-3.6133 -6.2109 l-1.5039 0 l0 6.2109 l-2.334 0 l0 -13.926 l4.834 0 c3.0176 0 4.3457 1.8066 4.3457 4.043 c0 1.9434 -1.1523 3.252 -2.998 3.584 l4.0137 6.2988 l-2.7441 0 z M344.81448125 8.047 l0 4.0137 l2.1582 0 c1.709 0 2.4414 -0.80078 2.4414 -1.9922 c0 -1.1816 -0.73242 -2.0215 -2.4414 -2.0215 l-2.1582 0 z M375.32714453125 20 l-2.3145 0 l-0.91797 -10.996 l-3.9941 10.996 l-1.4648 0 l-3.9746 -10.977 l-0.92773 10.977 l-2.3242 0 l1.1133 -13.926 l3.252 0 l3.584 9.8438 l3.6133 -9.8438 l3.252 0 z M389.5399984375 20.18555 c-4.0039 0 -7.0313 -2.7441 -7.0313 -7.1582 c0 -4.4043 3.0273 -7.1484 7.0313 -7.1484 c3.9941 0 7.0215 2.7441 7.0215 7.1484 c0 4.4141 -3.0273 7.1582 -7.0215 7.1582 z M389.5399984375 18.0176 c2.6367 0 4.6973 -1.8262 4.6973 -4.9902 c0 -3.1348 -2.0605 -4.9707 -4.6973 -4.9707 s-4.6973 1.8359 -4.6973 4.9707 c0 3.1641 2.0605 4.9902 4.6973 4.9902 z M413.74387109375 6.074 l2.334 0 l0 13.926 l-2.6172 0 l-6.8359 -10.625 l0 10.625 l-2.3145 0 l0 -13.926 l2.5879 0 l6.8457 10.557 l0 -10.557 z M434.617015625 6.074 l-4.5801 7.2754 l0 6.6504 l-2.3438 0 l0 -6.6211 l-4.5996 -7.3047 l2.6172 0 l3.1445 5.2051 l3.1543 -5.2051 l2.6074 0 z"></path></g>
			</g>
		</svg>
	